# xmcd
#
# Track frame offsets:
#	150
#	22467
#	58190
#	82199
#	118152
#	166199
#	219922
#	237716
#	282373
#
# Disc length: 4054 seconds
#
# Revision: 0
# Processed by: cddbd v1.5.2PL0 Copyright (c) Steve Scherf et al.
# Submitted via: EasyCDDAExtractor 16.1.0.1
#
DISCID=8b0fd409
DTITLE=Santana - 17 suosikkia [CD1)
DYEAR=2008
DGENRE=Blues
TTITLE0=Soul Sacrifice
TTITLE1=Evil Ways (live)
TTITLE2=Persuasion
TTITLE3=Jam in G minor
TTITLE4=Fried Neckbones And Home Fries
TTITLE5=El Corazon Manda
TTITLE6=As The Years Go By
TTITLE7=Jingo
TTITLE8=Travelin' Blues
EXTD=
EXTT0=
EXTT1=
EXTT2=
EXTT3=
EXTT4=
EXTT5=
EXTT6=
EXTT7=
EXTT8=
PLAYORDER=
